<svg xmlns="http://www.w3.org/2000/svg" viewBox="0 0 512 512"><path fill="currentColor" fill-rule="evenodd" d="m206.6 25.5-2.3 2.5H109v8h96l-.5 2.3c-1 4.5-7 59.6-8.2 75.7-.3 4.7-1 8.7-1.6 8.9-4.4 1.6-14.2 18.2-16.9 28.4-1 4-4.8 13.3-8.3 20.7-7.3 15.4-8.4 20.4-6 27 1 2.5 2 6.3 2.4 8.5q1.5 7.5 5 9.5c3 1.5 9.9 1.2 13.7-.6A125 125 0 0 0 207 193c.5 0 1.4 2.1 2 4.8s2.9 7.6 5 11.2l3.6 6.5-.3 13.4c-.3 14-.5 14.7-6.2 23.6-1 1.7-2 4.6-2.1 6.5 0 2-1.4 9.1-3 16-3.7 16.3-7 35.7-6.3 37.5.3.8 1.6 2 2.8 2.9 1.7 1 2.5 2.8 3 6.6.2 2.8 2.3 9 4.5 13.8a53 53 0 0 1 5 26.7 90 90 0 0 0 5 40.7c7 23.5 8 29.2 7.6 42.4-.4 9-1.2 13.4-4.1 23.5-4.6 15.5-5 17.7-3 22.2 1 2.7 2.7 4.3 5.8 5.8 4.1 2 4.6 2 8 .6 3.7-1.5 7.2-5.9 11.4-14l2.1-4 .6 3.3c.4 1.8.7 4.6.7 6.2q0 3 3 6c2.8 2.8 3.3 3 8.7 2.3 6.5-.8 13.1-3.5 16-6.6 1.4-1.7 1.8-3.8 2-10.3 0-4.4-.3-10.4-.8-13.1a153 153 0 0 1-.3-37c.7-3.3 3-11.4 5-18 9.2-29.7 10-35.5 6.9-47.5a33 33 0 0 1 2.3-23.8c1.7-3.5 3.8-9 4.7-12.5 1.3-4.9 2.4-6.6 4.9-8.2l3.1-2-.1-12.5c-.1-7.5-1-17.4-2.3-24.7-1.2-6.7-2.1-15.4-2.1-19.3 0-6.3-.4-7.9-3.5-13.4l-3.5-6.3v-26l5-9.7c2.8-5.3 5-10.5 5-11.6s.5-2 1-2 1 .4 1 .9c0 2 17.2 19.7 21.1 21.8 5.5 3 12.7 3 15.7.3 1.2-1.1 2.6-4 3.2-6.3l2.7-9.9c2.4-8.8 1.4-14-5-26.6-3.1-6.1-6.8-15-8.1-19.6s-3.2-10-4.1-11.6a95 95 0 0 0-12.6-18.3c-1.7-1.3-2.2-3.8-4-19.8-5.4-52-6.8-63.5-7.5-66.2-.5-1.6 2.3-1.7 48-1.7H403v-8h-49c-42.4 0-49-.2-49-1.5 0-2.3-3.6-3.8-6-2.5-2.3 1.2-2.3 3.9 0 18l1.5 9 3 16.5c1.4 7.2 3 16.6 4 21l1.4 8-.4-7c-.6-8.9 1-5.7 2 4 .3 3.8 1 9.7 1.5 13 1.8 12 2.1 16.7 1.1 16-.5-.2-1.2-4-1.6-8s-1-7.4-1.2-7.1-.1 4 .3 8.5c.6 8 .7 8.1 3.3 8.1 3.8 0 5.1 1.3 11.4 11.7a64 64 0 0 1 7.7 17 133 133 0 0 0 8 20c6.8 13.8 8 19 5.7 26-.8 2.6-1.8 6.8-2.2 9.2-1 5.7-4.2 9.1-9 9.1-6.5 0-10.9-2.7-19.3-11.9-10.1-11-14-17.1-14.8-23.3-.4-2.7-1-5-1.4-5.3s-.3 1.9.1 4.6c.5 2.8.7 6.3.5 7.7q-.2 2.3.1 1.4.4-1 1.5-1.2c1.8 0-.2 6.4-5.5 17l-5.2 10.5.3 13.5c.3 13 .4 13.7 3.5 19 2.7 4.9 3.2 6.8 3.8 16.5.4 6 1.5 15.3 2.4 20.5s1.8 14.1 2.2 19.8c.5 9.1.4 10.4-1.3 12.3-1 1.2-2.8 2.5-4 3q-2.1.6-2.8 5c-.4 2.4-2.2 7.8-4.1 12-4.3 9.4-5.8 19.9-3.7 25.5a47 47 0 0 1 1.6 12.9c0 8.3-.4 10.6-6 29-3.5 11-6.7 22.7-7.2 26-1.3 7.2-.8 31.9.7 39.4 1.6 7.6 1.4 15.3-.4 17.8-3.8 5.4-18 9.9-22.5 7.1-4.2-2.6-5.8-13-3.6-23.3.8-3.8 1.4-7 1.2-7.3s-1.3.8-2.4 2.2a25 25 0 0 0-3 9.7c-.8 5.1-1.8 8-3.5 9.8a45 45 0 0 0-4 5.4 15 15 0 0 1-5.2 4.4c-3.1 1.5-3.5 1.5-6.7-.3a16 16 0 0 1-5.2-5.9c-2.2-4.3-2.2-4.3 4-24.5 2-6.7 2.7-11.2 3-21.5.5-14.5-.2-18-8.3-44.5-2.4-8-4.7-17.4-5-21-.6-7.2 1.3-18.8 2.8-17.3.6.6.5 3-.2 6.3-1.6 7.4-.8 12 5.4 34.2 7.8 27.5 7.8 27.6 7.3 42.8-.5 13.7-.4 13.3-7 34.4-2.3 7-2 9.4 1.3 12.7 3 3 6.5 4.3 4.3 1.6-.8-1-.7-2 .4-4.2.8-1.5 1.3-3 1-3.2-.2-.2-1.1 1.2-2 3.2-1.7 3.4-3.6 4-3.6 1q0-1.4-1-1.5c-1.7 0-1.1-4.3 1.5-12a96 96 0 0 0 6.4-34.4c.1-13.1-1-18.6-8-42.6-5.3-18.5-6.2-23.6-5-30.8.8-5.2.7-6.5-1-9.9a45 45 0 0 1-2.8-10.9c-.5-4.4-2-9.2-4-13.1a75 75 0 0 1-5-15.5C204 309 204 309 213 306.3a42 42 0 0 1 33.8 4.7c5 3.5 5 4.5 2.1 15a95 95 0 0 0-2.5 10.5l-2 12.5-1.6 9.5 3.1 8a91 91 0 0 1 4.3 14.7c1 5.9 1 7.7-1 16.1-3.5 15.2-2.6 33.9 2.2 44.1l2.3 5.1 2.3-7.5a87 87 0 0 0 .6-39 42 42 0 0 1 .9-27c3-9 3-9.6-1.2-32.2-1.2-7-1.3-9.6-.4-13.2a38 38 0 0 0 1-7.3q0-2.6-.6-1c-.5 2-2.3 2.3-2.3.3 0-2.3 8-8.4 13.3-10.2a51 51 0 0 1 24.9.6c2.3 1 2.6 1.7 2.1 4.9a95 95 0 0 1-6.7 24c-1.8 4.2-3.8 10.3-4.4 13.6s-1.3 6.9-1.7 8q-.6 2 .9-.5c.8-1.4 2-5.5 2.6-9s2.5-9.2 4-12.5a94 94 0 0 0 6.6-24.3q.6-2 1.5-1.7c.5.4.7 2.2.3 4.2-.6 3.3-.5 3.4 1.3 2.5 4.5-2.5 4.7-4 .6-6.6a34 34 0 0 0-20.8-5.9c-9 0-15.1 2-21.7 7.3-4.3 3.5-4.8 3.6-4.8 1.2 0-4.1-10.4-9.7-21.2-11.3-6.2-1-8.6-1-14.9.5a41 41 0 0 0-15.2 6.6c-.6 0 4-25.3 6.7-36.3a97 97 0 0 0 2.6-14.5q0-3.6 4-10.1c3.8-6.6 3.8-6.7 4.5-20.3l.7-13.7-4-7.3c-3.8-7-5.2-10.7-6.6-17.1l-.7-2.8-3.2 4.8a107 107 0 0 1-22 22.3c-8.4 3-14.1 0-15.7-8.6-.4-2.7-1.6-7-2.5-9.4-2.3-6-1.2-10.7 6.4-26.2 3.3-6.8 6.7-15.2 7.6-18.7 2-8 4.3-12.7 10.3-21.6l4.7-7 6.8.2c7.5.1 10 1.5 9.4 5q-.2 2.1.4 2.3.8.2.9 2c0 2.3-.5 2.4-4.9.9-1.8-.6-3.4-.9-3.7-.6s1.2 1.1 3.5 1.8c3.3 1 4.1 1.7 4.1 3.6 0 2.7.2 2.7-4.4.8-2-.8-3.6-1.2-3.6-.7s1.5 1.2 3.2 1.7c3.8 1.2 4.6 3.5 2.2 6-1.7 1.6-1.8 1.6-2.5-.3q-1.5-3.7-6.1.5c-1.3 1.2-3.9 3-5.8 4.2q-3.4 2-1.7 2.1t1.7 2-1 1.5c-1.2-.7-1.4.8-.2 2 .4.3.5 4.8.4 10-.4 9-.3 9.2 2 9.8 4.2 1.2 6.6.7 9.5-1.7a15 15 0 0 1 5.6-3.1c2.1-.6 2.4-1 1.8-2.8a124 124 0 0 1-2.6-12c-1.6-9-1.6-10-.1-11.6.9-1 1.6-2.5 1.6-3.3 0-2.1 6.6-3.3 11.3-2 3 .8 3.6.7 4-.7s8.7-7.1 10.3-7.1c.2 0 .4 1.3.4 3 0 2.2-.5 3-2.2 3.3q-3.1.5-.2.6a7 7 0 0 0 4.2-2c2-1.8 2.2-2.9 2-10.2l-.2-8.2-.3 8.3c-.2 4.5-.8 8.2-1.3 8.2q-1-.2-1-2.5V133l-4.2 2.1c-2.4 1.2-5.6 3-7.2 4.2-2 1.4-4.6 2-8.7 2.1-3.3 0-5.9-.2-5.9-.6s2.3-.8 5-.8c4.2 0 6.3-.7 11.7-4a37 37 0 0 1 8-4c1 0 1.3-2 1.3-7.7v-7.8l3 3.8c3.3 3.9 5.9 5.1 3.8 1.7-.7-1.1-1.9-2-2.6-2q-1.4 0-.8-1.7.6-1.5 0-1c-1 1-4.4-2.3-3.8-3.8q.3-1.2-1.5-1.8c-3.7-1-5.8-11.1-2.6-12.3 1.1-.5 1.5-2.3 1.5-7.8 0-8.7 2.5-13.7 9-18 15-10.2 34.8 2.3 32.7 20.7-.5 3.8-.3 4.7 1 4.7 2.5 0 1.2 9.8-1.6 12.1-1.8 1.5-2.1 2.8-2.1 10.2v8.5l7.4 4.1c4.1 2.2 7.8 4.5 8 5 .4.6 3.2 1.1 6.2 1.1s5.4.4 5.4 1-1.5.6-3.2.4-4.4-.1-5.8.5c-2 .8-1.5 1 3.8 1 3.5 0 6 .5 5.8 1s.4 2 1.6 3.6l2.1 2.7-2.1 11.2c-2.6 13.2-2.6 12.6-.8 12.6.7 0 3 1.4 5.1 3 3.8 3 6 3.5 10.4 2.3l2.3-.6-.7-12.3c-.6-10.3-.5-12.3.8-12.6q1.3-.4-2.2-2.7c-3.3-2.1-3.4-2.2-1.7-.2 1.8 2 1 3-1 1.1q-.8-.7-.6 4.8a40 40 0 0 1-.7 9.7c-.8 3.3-1 2-.8-7.5a59 59 0 0 0-.7-12.8q-.8-1.3-3.3-.7c-1.4.3-3.2 0-4.1-.7q-1.8-1.4.2 1c1 1.2 2.3 2 2.7 1.6s.9 0 .9.6c0 1.5-4.2.2-5.8-1.8s-.4-3.2 4-4.9q3-1.1 1.5-1.2c-1 0-2.8.4-3.9 1-1.6.9-2.3.8-3-.2-1.3-2.2-1-2.7 3-4 2-.6 4.1-1.5 4.7-2q2-2-4 .5c-1.8.8-3.6 1.2-4 .8-1.4-1.4-.2-3.4 2.8-4.8q4.1-1.7.7-1.2-2.7.4-2.5-1.6-.2-2.9 5.5-4l2.5-.5-1.1-12.8c-1.3-13.5-4-30.9-7.9-50.8-1.3-6.6-2.6-14.2-3-17-1-9-2.6-17.8-3.1-18.7-1-1.5-5.4-.8-7.1 1.2s-3 2-31.8 2c-29.2 0-30 0-31.3-2-1-1.6-2.1-2-4.5-1.8-3 .3-3.2.6-4 4.8q-2.2 14.4-7.2 44c-2 11.2-4.2 26.6-5.2 34.2-1.7 14.3-2.3 16.5-4.2 15.4-1.5-1-1.4-5.7.4-20l1.5-12.8q.1-.7.8-.8c.4 0 .5 2.6 0 5.8-1.6 13.2-.4 11.6 1.7-2.3l6.3-37.5c4.9-27.2 5.1-29.8 3.2-31-2.4-1.5-4-1.2-6.4 1.5m2.4 2.2c0 1-.3 3.6-.7 5.8-.8 5.5.5 4 1.6-1.9.5-2.6.5-4.9 0-5.2q-.8-.3-1 1.3m90.5-.9c.3.4 1 4.8 1.6 9.8.7 4.9 1.7 9.6 2.2 10.4q1 1.6.4-1.6l-1.2-10.7q-.6-7.6-2-8.1t-1 .2m-78.8 1.7q-.4 1.4.4 1.5 1-.1 1-1.5c0-1.4-.2-1.5-.4-1.5s-.6.7-1 1.5m69.7 6.5c.4 4.7 2.7 19 5.2 32l7.7 39.5c1.7 8.8 3.4 16.4 4 17 1.7 1.8 1.5.9-13.2-74.7a181 181 0 0 1-2.4-15.8c-.2-2.8-.7-5.4-1.1-5.8s-.5 3.1-.2 7.8m-179.6-5.3c-.4.3-.7 1.7-.7 3V35h95v-6h-46.8c-25.8 0-47.2.3-47.5.7m114 1.9c-.2 1.4 0 2.8.7 3s14.6.3 31.1.2l30-.3v-5l-30.6-.3-30.7-.2zm81.3.4v3l47.8-.2 47.7-.3.3-2.7.3-2.8H306zm-86.5 2.7a6086 6086 0 0 1-15 78.5c-1.7 7.6-2 11.7-.6 10.3.7-.8 5-22.3 14.7-73 1.8-9.8 2.9-19.5 2-19.5-.2 0-.8 1.7-1.1 3.7m3.7 9.5c-.7 4.6-4.5 24.2-8.4 43.6-6.6 33.1-7 35.4-5.4 37.1q1.7 2 1.9 7.4l.2 5.5 4.7.4c4 .3 5.7-.3 12.4-4.2l7.6-4.4-.4-7.8c-.3-5.7-1-8.2-2-9-3.4-2.6-5.3-13.3-2.6-14.3q1.3-.7 1.4-7.3c.1-7 2.3-13 6-16.4a27 27 0 0 1 26-4c8 3.8 12.4 11.4 12.4 21.9 0 2.8.5 5.5 1 5.8 2 1.2 1.1 9-1.3 12.6-1.7 2.6-2.3 5-2.5 10-.2 7.5.7 9.1 6.6 11.6 2 .8 4.6 2.3 6 3.3 1.6 1.1 4.8 2 7.6 2.2l5 .2.2-5.2c.1-2.8 1-6.4 1.9-8 1.6-2.6 1.4-4-5-35.7l-8.2-43.3-1.6-10.2h-62.3zm23.3 30.2c-3.6 1.6-9.3 7.8-10 10.9-1 5.3-1.6 9.7-1.1 9.7.2 0 1-2.4 1.6-5.3s2-6.7 3-8.4c4.2-7 17.1-9.7 24-5 6 4 8 8 8 15.8q0 10.7 2.1 9.3c.5-.3.9 1 .9 3q0 3.6-2 4.6c-1.1.6-2.7 2.7-3.5 4.8-2.1 5-5.2 8-10 10.3-2.2 1-3.3 1.9-2.5 1.9 2 0 7.9-3.7 10-6.3 1-1.2 2.7-3.9 3.6-6 1-2 2.3-3.7 3-3.7 1.8 0 2.8-4.3 2-7.8-.4-1.5-1.1-5.9-1.5-9.7-1-10-3.6-14.2-10.8-17.9-3.8-2-12.6-2-16.8-.2M202 86.5q0 .5.5.5t.5-.5-.5-.5-.5.5m34 12q0 .5.5.5t.5-.5-.5-.5-.5.5m73.3 3q0 3.5.4 1.7.4-2.6 0-4c-.4-1.4-.5.1-.4 2.3M234 101q-2 1.1.3 1 1.6-.1 1.7-1c0-1.2-.1-1.2-2 0m-.5 5c.3 1.8 1.4 4 2.5 4.7s2 2 2 2.8q0 1.3.9 2 .7.1.3-2c-.4-2.2-1.3-3-2.3-3.6-1-.5-2.3-2.4-2.9-4.2l-1-3.2zm-33.3 5q0 3 .5 1.8c.2-1 .2-2.6 0-3.5q-.5-1.3-.5 1.7m68.8 8.5a21 21 0 0 1-14 8.6l-4.5.6 4.3.2c5.1.1 9-1.7 12.6-6l2.6-3 .1 6.3v9.3q-.1 2.8.6 1.8 1-1.2 2.3-.3 2 1.2 0 1-1.6 0 .5 1.3c1.9 1 1.7 1.2-1.5 1.8-3 .6-2.8.7 1.9.8l5.4.1-2.7-2.5c-1.4-1.3-2.6-3.1-2.6-4 0-1.4 1.2-1 6.2 1.8 6.4 3.6 8.7 6 4.7 5q-2.2-.7-1.5.5c1.2 2 4.6 1.4 4.6-.6q0-1.8-7.2-5.9c-6.2-3.4-7.4-3.8-8-2.4-.9 2.5-2.1-7.2-1.6-13l.4-4.9zm-69.8-.5q0 2.2.5 1.3c.2-.7.2-1.9 0-2.5q-.5-1-.5 1.2m-10.6 16.3a56 56 0 0 0-8.5 19c0 .7.9-1 1.8-3.9s3.9-8.4 6.3-12.5c5.3-8.7 7-11.9 6.4-11.9-.2 0-2.9 4.2-6 9.3M249 127q0 1.1.7.7a1 1 0 0 0 0-1.4q-.7-.4-.7.7m70.5 5c2 3.6 5 8.5 6.5 11s3.5 7.4 4.5 11 4.3 12.1 7.5 19l6.3 14q.6 1.8.6-.3c0-1-2-6.1-4.7-11.5a101 101 0 0 1-9.1-22.8 80 80 0 0 0-7.2-15.5c-6.1-10.2-9.6-14-4.4-4.9M201 129c0 1 5.9 2.5 6.6 1.8.2-.3-1.2-1-3.1-1.5s-3.5-.7-3.5-.3m6-.5q0 .5.5.5t.5-.5-.5-.5-.5.5m96 0q0 .5.5.5t.5-.5q-.1-.6-.5-.5t-.5.5m5 .5q-2 1.1.3 1 1.6-.1 1.7-1c0-1.2-.1-1.2-2 0m-49.4 10.7c-1.7 3.5-2.4 6-1.8 6.5q1 .9 1.7-.3.8-1.2-.3-.5c-1.7 1-1.5.1 1.4-5.5 1.4-2.8 2.4-5.3 2.2-5.5s-1.7 2.2-3.2 5.3m43.4-5.2q0 .5.5.5t.5-.5q-.1-.6-.5-.5t-.5.5m-40 3q0 .5.5.5t.5-.5q-.1-.6-.5-.5t-.5.5m-1 2q0 .5.5.5t.5-.5q-.1-.6-.5-.5t-.5.5m-21.2 2.2c.6.2 1.8.2 2.4 0q1-.5-1.2-.5c-2.2 0-2 .2-1.2.5m-11 1q1.2.4 2-.1c.7-.5-.3-.6-1.4-.5q-1.7 0-.6.6m15.2-.3q.2.4 2 .9t1.4-.4c-.5-.9-3.4-1.3-3.4-.5m20.3.3a1 1 0 0 0 1.4 0q.4-.6-.7-.7c-1.1-.1-1 .3-.7.7m-27.5 1q1.2.4 2-.1c.7-.5-.3-.6-1.4-.5q-1.7 0-.6.6m34 0q1.2.4 2-.1c.7-.5-.3-.6-1.4-.5q-1.7 0-.6.6m-64.4 1.5q-.6 1 .4.4 1.1-.7 1.2-1.2c0-.8-.9-.4-1.6.8m21.9-.5c1 .2 2.3.2 3 0s-.2-.5-1.8-.5-2.2.2-1.2.5m11.8-.3c.2.2 2.6.6 5.4 1q5 .5 2.5-.4c-2.5-.8-8.7-1.3-8-.6m20 .1q0 .5.5.5t.5-.5q-.1-.6-.5-.5t-.5.5m5.8.2q1.2.4 2-.1c.7-.5-.3-.6-1.4-.5q-1.7 0-.6.6m13.2-.2q0 .5.5.5t.5-.5q-.1-.6-.5-.5t-.5.5m-17 1q0 .5.5.5t.5-.5q-.1-.6-.5-.5t-.5.5m-64.5 4.3c-2.2 1.9-3.2 3.2-2.1 2.8 1.6-.5 1.8-.1 1.4 3.9-.2 2.5 0 4.5.4 4.5s.8 2 .8 4.4.5 4.8 1.1 5.2c.9.5 1-2.1.4-9.8q-.7-10.8.4-11.2 1-.6 1.1 1.9c0 3.7 3.3 17.3 3.7 15.4.3-1.4-2.3-19.9-3-20.4 0-.2-2 1.3-4.2 3.3m111.6-3.1a111 111 0 0 0-3 21c.1 3.7 2.5-6 3.4-14 .4-3.5 1-5.5 1.7-5q1 .4.6-.7c-.5-1.5-3-2.7-2.7-1.3m-106.1.8q0 .5.5.5t.5-.5-.5-.5-.5.5m102.7 3.8c-1.1 2.9-1 5.3.4 4 .6-.6 1-2.1.7-3.4q-.3-3-1-.6m-101.7.9c0 .7.4 2.2.9 3.3q1 2.8 1-.7c0-1.5-.4-3-1-3.3s-1 0-1 .7m-20 4.3c-.7 2-1 3.9-.7 4.1s1-1.1 1.7-3.1 1-3.9.7-4.1-1 1.1-1.7 3.1m141-3c.2 1.9 1.9 5 2 3.5 0-.8-.5-2.2-1-3s-1-1-1-.5m-134 2q0 .5.5.5t.5-.5-.5-.5-.5.5m-12 1.5q0 1.1.7.7a1 1 0 0 0 0-1.4q-.7-.4-.7.7m74.8 5c-.3 3-.2 6.4.3 7.5.8 2 .8 2 .9 0q0-2.9 1 .3c.5 1.2 1.2 2.2 1.4 2.2s0-1.2-.5-2.7-1.4-5-1.8-7.8l-.7-5zm-75.8-2q0 1.1.7.7a1 1 0 0 0 0-1.4q-.7-.4-.7.7m28-.5q0 .5.5.5t.5-.5-.5-.5-.5.5m121 .5q0 1.1.7.7a1 1 0 0 0 0-1.4q-.6-.4-.7.7m-155.4 14a55 55 0 0 0-5.3 13.2q.6 1.5.6-.2c0-.8 2.6-6.5 5.7-12.7a73 73 0 0 0 5.2-11.8c-.2-.2-3 5-6.2 11.5m149.2-2.7c.4 8.2.2 9.7-1 9.7s-1.7 1.6-2.2 5.6c-.4 3.1-.5 5.9-.2 6.1s.7-2 1.1-5c.4-3.4 1.2-5.5 1.9-5.4 1.4.3 2-12.9.8-17.5q-.9-3.5-.4 6.5m-109.2-6.8q.7 1.4 1.5 1.5.7-.1.3-1.5-.7-1.3-1.5-1.5-.7.2-.3 1.5m83.1 4.7c-2 2.7-5.2 5.8-7 6.8s-2.8 2-2.3 2c2 0 7.7-4.3 9.3-7 1-1.7 2.1-3 2.5-3 1.7 0-2.3 6-5.7 8.5-5.1 4-9.8 4.7-19.8 3-7.5-1.1-13.5-3-12.5-4 .1-.1 4.4.6 9.3 1.6s10.6 1.8 12.5 1.8-1.7-1-8-2-11.9-2.4-12.4-3c-1.3-1.2-2.9-1.2-2.1.1 1 1.7-.7 1.1-2.2-.7q-1.9-2.5-.3.5c2.5 5 20.5 9.4 29.5 7 5.5-1.3 12.2-7.7 13.1-12.5.4-1.9.5-3.5.3-3.7a20 20 0 0 0-4.2 4.6m-40.6-2.6q0 1.7.6.6.4-1.2-.1-2c-.5-.7-.6.3-.5 1.4m-42 1.5c0 .9 1.3 3.5 3 5.8a18 18 0 0 0 17.5 7.7c10.7-1.2 15.5-2.7 18.8-5.8l3.1-3-3.2 2.5a39 39 0 0 1-21 5.1c-5.4 0-6.6-.3-10-3a30 30 0 0 1-6-7c-1.3-2.1-2.3-3.2-2.3-2.3m3.7 2c2 3.5 6.8 7.9 8.6 7.9q.9-.2-1.9-1.9c-1.7-1-4.1-3.5-5.3-5.5-2.8-4.4-4-4.8-1.4-.5m9.7 1q-.8 1.3.6.4 1.3-.7 2.7 1 1.2 1.6 1.3.9c0-1.2-2-3.4-3.1-3.4q-.7 0-1.5 1.2m56.3-.5c-2.4 2.3 1.2 5.5 3.8 3.3q1.8-1.3.4-2.6c-1.2-1.5-3.1-1.8-4.2-.7m-91.9 9.3c.3 4.7.6 10.7.5 13.5 0 4.2.1 4.6 1 2.5.4-1.4.6-4.7.2-7.5q-.6-5 .4-4c.5.6 1.2 3 1.4 5.5q.5 4.5.2-1.4 0-5.9-1.8-7c-.9-.7-1.8-3.2-2-5.7-.3-2.4-.2-.6.1 4.1m14.5-6.5c-1.5 1.3-2.3 2.5-1.7 2.5q1.1-.1 1.8-1.5t2-1.5c.8 0 1.8-.4 2.1-1 1.2-1.9-1.4-1-4.2 1.5m78.2-1.6c-.7 1.2 1.2 2.4 2.5 1.6 1.1-.7.4-2.5-1-2.5q-.8 0-1.5 1m19.5 0c0 .6 1 1 2 1s1.8-.4 1.5-1-1.3-1-2-1-1.5.5-1.5 1m-52 1.4c-1.4 1.7-4.1 2.5-15.5 4.2l-9 1.3 7.5-.5q14.6-1 17.6-4.5c1-1 1.5-1.9 1.2-1.9q-.6.1-1.7 1.4m-24.5.8q.6.7 1.5.8c.9.1.9-.4.9-.8q-.1-.8-1.5-.9c-1.4 0-1.2.4-.9.9M200 177q0 1.1.7.7a1 1 0 0 0 0-1.4q-.7-.4-.7.7m111-.5q0 .5.5.5t.5-.5q-.1-.6-.5-.5t-.5.5m-102 1q0 .5.5.5t.5-.5-.5-.5-.5.5m1.3 4c-.8 3.6-.8 6 .3 10.7 1.3 5.6 2.6 8.6 8.4 19.6 2.2 4.2 2.2 4.8 1.4 18.3-.8 12-.7 13.9.6 13.9.8 0 5.6-.7 10.5-1.5 18.2-3 36-3 54.7.1l3.7.7-.2-14c-.2-11.5 0-14.3 1.5-16.8 4-7.2 8.8-17 8.8-18.5 0-.8-1.5 1.8-3.3 6q-5.8 13.7-5.3 2.6c0-3 .5-5.8.9-6.2q.6-.8.7-2.3.1-1.7-1.4.5-1.4 1.6-2 1.3c-.6-.3.4-1.6 1.5-2.8s1.8-2.5 1.4-3q-.6-.3-1.7 1.3-1.4 2.3-3 3.8c-1.8 1.8-1.8 1.9-.1 1.6 2-.3 2.2 1.9.8 5.7q-.8 2.3.4.5c1.5-2.2 2.3-.7 1.2 2.3q-1 2.6 0 3c1.8.5 0 4.4-3.4 7.9q-2.8 2.7-1.1 1.5c1.7-1.2 2.2-1.7 2.5-1.7s.5 6 .6 13.1l.3 13.1-2.8-.7a171 171 0 0 0-53.2-.5 95 95 0 0 1-11.8 1.5c-.6-.5 1-24.5 1.7-24.4.3 0 2.3 2 4.4 4.6 3.3 4 3.7 4.2 3.3 2-.2-1.5-1.6-4.1-3-6s-3.2-4.8-4-6.7q-1.3-3.1-1.6-1.8c0 .9 1.6 4 3.5 6.8 4.3 6.4 4 7.7-.4 2q-5.3-6.5-5-13.5l.1-3 .8 3q.8 3.7.9.7a12 12 0 0 0-1.1-4.5c-1.2-2-1.3-1.9-1.8 2.3l-.5 4.5-2.8-5.2c-3.8-7.4-5.8-16.4-4.6-20.9.6-2 .9-4 .7-4.6s-.9 1-1.5 3.7m3 1.5c0 3.6.2 5 .4 3.3s.2-4.8 0-6.6-.4-.3-.4 3.3m83.9 1.5c-.1 4.9.2 7.4.7 6.5.5-.8.5-4.4.1-8l-.7-6.5zm5.3-4.5q1.5 9.4 13.6 22.7c8.4 9.2 13 12.2 19 12.3 4.7 0 6.7-2.3 7.8-9.1.5-3 1.4-6.7 2-8.2s1-4.3 1-6q0-4-1 1.5c-1 5.9-1.8 7.5-3 5.7q-.8-1-.3 3.3 1.8 13.5-10.4 11.3c-3-.5-5.4-2.4-12-9.3-10.2-10.7-12.8-14.4-15.3-21.9q-2-5.7-1.4-2.3m-94.4.3a49 49 0 0 1-10 18.1l-4.3 5.1 4.8-5c5.3-5.5 10.8-15.6 10-18.3q-.4-2.3-.5.1m-17.1 2.2q0 .5.5.5t.5-.5-.5-.5-.5.5m99 1.4q1.9 3.7 0 2.6-.8-.4-1.6.6-.7 1.2.6.4t.6.3q-.8 1-2 .6-1.4-.4-2 .5t1.8 1.1c1.5 0 3-.8 3.6-2 1.2-2.2.5-6-1.1-6q-.9 0 0 2m-70-.2c-.6 4-.4 8.2.3 8.2q.8-.1.2-1.1-.7-1.1 1.4-.5c2.7.9 3.6-.8 1.4-2.5q-2.2-2-.3.4 1.3 1.6.3 1.7c-1.6 0-3-3-2.5-5.1.3-1 .3-1.9 0-1.9q-.6 0-.8.8m28.4.9a1 1 0 0 0 1.4 0q.4-.7-.7-.7c-1.1 0-1 .3-.7.7m12.5 0q1.2.4 2-.1c.7-.5-.3-.6-1.4-.5q-1.7 0-.6.6m59.3 5.3c0 3.6.4 7.4.8 8.5s.6-1.2.4-5.5c-.6-9.8-1.1-11.2-1.2-3m-75.6-4q-.5.9 1 .4 2.6-1.2.6-1.4-1 0-1.6 1m19.5-.5q0 .5.5.5t.5-.5q-.1-.6-.5-.5t-.5.5m2 1q0 .5.5.5t.5-.5q-.1-.6-.5-.5t-.5.5m69 0q0 .5.5.5t.5-.5q-.1-.6-.5-.5t-.5.5m-161.3 1.9c-.4 1-.5 2.1-.2 2.4.9 1 1.7-.6 1.3-2.5-.3-1.7-.4-1.7-1.1 0m73.6-.6a1 1 0 0 0 1.4 0q.4-.7-.7-.7c-1.1 0-1 .3-.7.7m15.2.3c2.7 1.2 4.3 1.2 2.5 0-.8-.5-2.2-1-3-1q-1.5.1.5 1m6.8.6c1 1.1 1.5 2.3 1.2 2.6s.4 1.3 1.5 2.3c3.7 3.3 3.2.7-.6-3.2-2-2-3-2.9-2-1.7m-27.4-.1q0 .5.5.5t.5-.5-.5-.5-.5.5m2 0q0 .5.5.5t.5-.5-.5-.5-.5.5m9.5 1.8c-.4 1.3-.5 4-.2 5.8.3 2.8.4 2.6.7-1.6l.3-5 .7 4 .7 4 .2-4.2c.1-4.7-1.5-6.7-2.4-3m82.7-.3q0 2.2.5 1.3c.2-.7.2-1.9 0-2.6q-.5-.8-.5 1.3m-68.7 0q.6 1 1.1 1c.5 0 .2-.4-.1-1s-.8-1-1.1-1-.2.5.1 1m-42 1.2q-.7 1 .3.4 1.1-.7 1.2-1.2c0-.8-.9-.4-1.6.8m-59.7 3.3c.3 2.2 1.1 5 2 6.2s1.3 3.6 1.3 5.3c0 3.3 1.5 7 3.4 8.2s7.4 1 10.9-.6c3.4-1.5 10.9-8.6 9-8.6-.7 0-2 1.3-3.2 2.9a16 16 0 0 1-12.5 6.1c-5 0-7-3.2-6.4-10.5.4-4.3.2-5.2-.8-4.4s-1.6-.1-2.8-3.8c-1.5-4.7-1.5-4.7-1-.8m105.9-2.5q.6 1 1.1 1c.5 0 .2-.4-.1-1s-.8-1-1.1-1-.2.5.1 1m-99.5.5q0 .5.5.5t.5-.5-.5-.5-.5.5m41 .5q0 1.1.7.7a1 1 0 0 0 0-1.4q-.7-.4-.7.7m125.2 1.5q0 2.6.5 1.2c.5-1.4.2-2.3 0-3s-.5.2-.5 1.8m-117.2-1q0 .5.5.5t.5-.5-.5-.5-.5.5m115 .5q0 1.1.7.7a1 1 0 0 0 0-1.4q-.6-.4-.7.7m-117 .7c0 .4 1.6 2.6 3.6 4.8 3.7 4 2.9 2.4-1.3-2.8q-2.1-2.6-2.3-2m99 .9q.2 1.7.7.6t-.1-2c-.5-.7-.6.3-.5 1.4m-145.1.8q.1 1.5 1 1.6 1.2 0 1-1c-.2-1-.4-1.2-1-1.5s-1 0-1 1m49-1.1q.2.5 1.8 1.7 2.3 2 .3-.3-2-2.6-2.1-1.4m-30.4 3q-.8 3.4-1.7 1.5-.8-1.4-.9-.2 0 1 1 1.8c1 .7 3.3-3.1 2.7-4.8q-.4-.9-1.1 1.8m143.4-2q0 .5.5.5t.5-.5q-.1-.6-.5-.5t-.5.5m-116 2q0 .5.5.5t.5-.5-.5-.5-.5.5m100 .5q0 1.1.7.7a1 1 0 0 0 0-1.4q-.6-.4-.7.7m18 0q0 1.1.7.7a1 1 0 0 0 0-1.4q-.6-.4-.7.7m-163 1.3c0 1.8 4.5 6.7 6 6.7.7 0 0-1-1.4-2s-2.6-2.8-2.6-3.5-.4-1.7-1-2-1 0-1 .8m52.5.7q1.7 1.8 2.3 2c.6.2-.3-.9-1.3-2s-2-2-2.3-2 .3.9 1.3 2m63.5-.5q0 .5.5.5t.5-.5q-.1-.6-.5-.5t-.5.5m-47.5 1.5q-1.9.9 3 .3c3.5-.5 4.6-.3 4.1.5q-.6 1.1.3 1.2c1.7 0 2.1-1.8.5-2.4a12 12 0 0 0-7.9.4m16.7-.4q-1 .6-.6 1.6.7.9 1.5-.3c.7-1.1 1.6-1.1 5.6 0 7.8 2.2 9 2.3 5.4.6-3.8-1.7-10-2.7-11.9-1.9m60.8-.1q0 .5.5.5t.5-.5q-.1-.6-.5-.5t-.5.5m2 .5q0 1.1.7.7a1 1 0 0 0 0-1.4q-.6-.4-.7.7m12.6 1.8-1.9 2.7 2.4-2.2c1.2-1.2 2-2.4 1.8-2.7s-1.3.8-2.3 2.2m-97.6.2q-1.2.9-.5 1 1.2-.1 2.5-1c1.3-.9 1-1 .5-1s-1.7.5-2.5 1m6.8.7c.6.2 1.8.2 2.4 0q1-.5-1.2-.5c-2.2 0-2 .2-1.2.5m18 0c.6.2 1.8.2 2.4 0q1-.5-1.2-.5c-2.2 0-2 .2-1.2.5m-21.5 1a1 1 0 0 0 1.4 0q.4-.7-.7-.7c-1.1 0-1 .3-.7.7m27.2.3c2.7 1.2 4.3 1.2 2.5 0-.8-.5-2.2-1-3-1q-1.5.1.5 1m-30.2.7a1 1 0 0 0 1.4 0q.4-.7-.7-.7c-1.1 0-1 .3-.7.7m93.7-.2q0 .5.5.5t.5-.5q-.1-.6-.5-.5t-.5.5m-77 1q0 .5.5.5t.5-.5-.5-.5-.5.5m18 0q0 .5.5.5t.5-.5q-.1-.6-.5-.5t-.5.5m-18.7 5.5q0 4 .4 2.3c.2-1.3.2-3.3 0-4.6q-.3-1.6-.4 2.3m31.8 1.3c-4.2 5-4.3 5-.7 1.7 3.2-3 6.4-7.1 5.4-7-.2 0-2.3 2.4-4.7 5.3m-30-.8q.2 2.6.6 1.2.4-2 0-3c-.4-1-.5.2-.5 1.8m-13.5 5.7c-4 1.4-2.4 2.8 3.3 2.8 4.8 0 7.1-1.2 4.9-2.6q-1.2-.6-.5.4.9 1.3-4 1.1h-4.9l3.5-1.4c4-1.5 2-1.9-2.3-.3m12.3-.7q0 .5.5.5t.5-.5-.5-.5-.5.5m5.2.6c-3.7 1.4-1.6 2.9 4.3 2.9 6.3 0 7.8-1.3 3.4-2.9-3.7-1.3-4.6-1.3-7.7 0m.3.9q-2.2 1 3.5.8 6.2 0 3-.8c-3.2-1-4-1-6.5 0m-30.5 3.5q0 .5.5.5t.5-.5-.5-.5-.5.5m26 3q.2 1.8.7.7t-.1-2c-.5-.7-.6.3-.5 1.4M253 233q.1.8 1 .4 1.2-.7 1-1-.2-.6-1-.5-1.1.2-1 1m-2 10.1c-11 .6-24.2 2-30.6 3.4-3.3.7-8.4 9.4-8.4 14a94 94 0 0 1-2.6 14.5 212 212 0 0 0-5.4 28.7v2.1l5.3-2a44 44 0 0 1 37.5 3.3 35 35 0 0 0 4.8 2.9c.2 0 .4-4 .4-8.8 0-8.4-.1-9-2.7-11.3-5-4.4-7-5.4-2.6-1.2l4.3 4v7.7c0 4.2-.3 7.6-.6 7.6s-1.7-1-3.2-2-5.7-3-9.5-4.2c-8-2.4-20-2.1-27.6.6-2.4.9-4.6 1.4-4.9 1.1-.6-.6 1-9.9 4.5-24.8l2.8-11.7 6.2-3.2c3.4-1.8 6-3.4 5.8-3.6s-1.6.3-3.3 1.2-3.2 1.3-3.4 1-1 .2-1.8 1-1.6 1.6-2.1 1.6c-1.7 0-.9-7.5 1-10.5 4.5-6.9 5-7.1 16.1-8.6 13-1.7 46.4-1.8 54 0 5.4 1.1 5.7 1.4 8.4 6.7 2.4 4.6 2.7 6.4 2.2 10.2-.3 2.6 0 8.3 1 13.6.9 5 2.2 13.6 3 19.1l1.3 10-.5-9c-.3-5-1.2-12.4-2-16.5s-1.5-10.9-1.4-15c0-6.3-.4-8.4-2.7-13.2-2.8-5.6-2.8-5.7-8.8-6.8-10.5-1.9-21.6-2.5-34.5-1.9m-31.2 8.6q1.2.4 2-.1c.7-.5-.3-.6-1.4-.5q-1.7 0-.6.6m3.2.8q0 .5.5.5t.5-.5-.5-.5-.5.5m4 0q0 .5.5.5t.5-.5-.5-.5-.5.5m41 2.4q-.2.8-1.2 1.4c-1 .6-.2.2 1.2 0 3.4-.6 5-2.3 2.2-2.3q-2 0-2.2 1m-10.7.7c1 .2 2.5.2 3.4 0q1.3-.5-1.7-.5c-3 0-2.7.2-1.7.5m-28.8 1.2q.3 1-1.2 2c-2.8 1.6-1 1.3 2.5-.5 3.9-1.9 4-2.4.6-2.4q-2.3 0-2 1m18 .2q-.6 1 .4.4 1.1-.7 1.2-1.2c0-.8-.9-.4-1.6.8m-21 .5a1 1 0 0 0 1.3 0q.4-.6-.7-.7c-1.1-.1-1 .3-.7.7m34.2.3q1.8.8.6 1-1.3 0-.8.6c.5.6 1.6-.1 2.9-1 2.2-1.6 2.2-1.6-1.2-1.5-2.9 0-3.1.2-1.5.9m-36.5.5q0 .5.5.5t.5-.5q-.1-.6-.5-.5-.6.1-.5.5m25-.1c1.3 1 6.1 1.6 5.5.6-.3-.5-1.8-1-3.2-1s-2.4.2-2.2.4m-28.6 1.6q-.5.9 1 .4 2.6-1.2.6-1.4-1 0-1.6 1m53.3 1.7c1.8.2 3 .8 2.7 1.4s.1.6 1 .2c2.4-.9-.2-2.3-4-2.1l-3 .1zm-19 2.4-2.3 2 3-1.7c4-2.4 4-2.4 2.8-2.4-.6 0-2.1 1-3.4 2m8.4-1.3c1 .2 2.3.2 3 0s-.2-.5-1.8-.5-2.2.2-1.2.5m-3.3.8q0 .5.5.5t.5-.5q-.1-.6-.5-.5t-.5.5m11.8.2q1.2.4 2-.1c.7-.5-.3-.6-1.4-.5q-1.7 0-.6.6m-13.8.8q0 .5.5.5t.5-.5q-.1-.6-.5-.5t-.5.5m7.3.2a1 1 0 0 0 1.4 0q.4-.6-.7-.7c-1.1-.1-1 .3-.7.7m3.7-.2q0 .5.5.5t.5-.5q-.1-.6-.5-.5t-.5.5m-13.6 1.7q-.6 1 .4.4 1.1-.7 1.2-1.2c0-.8-.9-.4-1.6.8m6-.5a1 1 0 0 0 1.3 0q.4-.6-.7-.7c-1.1-.1-1 .3-.7.7m19 2c1 .2 2.5.2 3.5 0s.1-.5-1.8-.5-2.7.2-1.7.5m-7.8 1.3c-2.5 1 0 1 3.5 0q3-.9.5-.8c-1.1 0-2.9.3-4 .8m13.5-.5q0 .5.5.5t.5-.5q-.1-.6-.5-.5t-.5.5m-21.5 3c-3.9 1.7-2 1.8 2.5 0q3.1-1.2 2-1.4c-1.1-.2-2.8.6-4.5 1.4m6.2.7a27 27 0 0 0-7.4 2.5c.3.2 4-.5 8.3-1.6s9.2-2.2 10.9-2.4q4.3-.5-.5-.5c-2 0-7 1-11.3 2m-41.4 1.5c1 .2 2.3.2 3 0s-.2-.5-1.8-.5-2.2.2-1.2.5m30.7-.2q0 .5.5.5t.5-.5q-.1-.6-.5-.5t-.5.5m-23.5 1.4 5 1.6q2.1 1 1-.4c-.7-.6-3-1.4-5-1.6q-5.2-.7-1 .4m-13.6 1.4c.4.5 3.2.7 6.2.5l5.4-.3-6.2-.5c-3.4-.3-5.8-.1-5.4.3m37-.6c.6.3 1.5.2 1.8-.1s-.2-.6-1.3-.5q-1.7 0-.6.6m-23.3 2.3c1.1.5 2.9.9 4 .9h2l-2-.9c-1.1-.5-2.9-.9-4-.9h-2zm8 0q.6 1 1.1 1c.5 0 .2-.4-.1-1s-.8-1-1.1-1-.2.5.1 1m-1.5 1.5q0 .5.5.5t.5-.5q-.1-.6-.5-.5-.6.1-.5.5m21 4q0 .5.5.5t.5-.5q-.1-.6-.5-.5t-.5.5m1 1.6c-2 1.2-5 3.5-6.7 5.2-3.3 3-3.3 3.1-3.3 12.8v9.8l5.6-3.4a38 38 0 0 1 38-.6c4.4 2.6 4.4 2.6 4.3-.7q0-2.5-.6-1c-.6 2.2 0 2.3-7-1-5.1-2.4-7-2.7-15.8-2.7-10.3 0-13.2.9-20.2 5.5l-3.3 2.2V303c0-9.6 1.5-12.4 8.6-16.6 2.4-1.4 4.4-2.8 4.4-3 0-.6-.3-.5-4 1.7m-3-.6q0 .5.5.5t.5-.5q-.1-.6-.5-.5t-.5.5m-13.5 1.7c1.1.6 2.9 1.9 4 2.8 2 1.8 2.1 1.7 5.5-1.2q3.1-2.7 2-2.3c-1.1.4-2.2 1.4-3.1 2.2-1.5 1.2-2.1 1.1-5-.6-1.9-1.2-3.8-2-4.4-2s-.1.5 1 1M207.1 311a67 67 0 0 0 5.7 22.3c3.1 7 5.2 9.7 5.2 6.8q0-1-.9-1c-1.5 0-6.3-12.3-8.1-21-1-4.7-1.9-7.9-1.9-7m-5.1 1.4c0 .8.5 1.8 1 2.1s1-.3 1-1.4-.4-2.1-1-2.1-1 .6-1 1.4m45.8 5.6a153 153 0 0 1-6 21.3c-.6 1.5-2.4 3.9-4 5.2s-2.4 2.5-1.7 2.5c1.7 0 7.9-6.9 7.9-8.7 0-.9 1.2-5.8 2.6-11a53 53 0 0 0 2.2-11.6q-.3-2-1 2.3m50.9-2.6c-.3.8-.2 1.8.3 2 1.3.9 2.4-1.4 1.2-2.6q-.9-.9-1.5.6m-39.1 2.7-1.7 8c-1 5.5-1 7.7.4 14 .9 4 1.9 10.1 2.2 13.4s1.3 7.4 2 9.2c1 2.5 1 3.3 0 3.6-1.9.8-5.5 14.6-5.5 21.2 0 3.3.7 9 1.6 12.5.9 3.6 2 10.8 2.4 16l.9 9.5-.4-10.5a92 92 0 0 0-2-16 43 43 0 0 1 .6-24c2.6-7.6 2.7-7.9 4-6 1.4 2.4 1.2-1.3-.6-6.8-.8-2.6-2-8-2.5-12.2s-1.5-10-2-13.2a25 25 0 0 1 .4-12.5 25 25 0 0 0 1-7.2q-.4-.2-.8 1M224 320q0 1.1.7.7a1 1 0 0 0 0-1.4q-.7-.4-.7.7m25.7 7.3c-1 4-2.6 12.5-3.7 19l-2 11.8 3 7.7c1.7 4.2 3.5 10.3 4.2 13.4 1.1 5.5 2.8 7 2.8 2.4 0-1.2 1.1-5.6 2.5-9.7 2.8-8.1 3-6.3-1.1-29.1a33 33 0 0 1-.7-14.5c1-4 .9-5-.4-6.6-.9-1-1.9-1.7-2.2-1.7s-1.4 3.3-2.4 7.3m-27.6 0c0 2-.8 5-1.7 6.5q-2.2 3.7 0 .7c1.6-1.9 1.8-1.9 2.7-.3q1 1.6 2.2 1.8 1 0-.3-1c-.8-.5-1.7-3.2-2-6.2-.6-4.5-.7-4.7-.9-1.5m2.1-.3q0 3.1.5 1.7c.2-1 .2-2.5 0-3.5s-.5-.1-.5 1.8m50.9-1.4q0 1.7.6.6.4-1.2-.1-2c-.5-.7-.6.3-.5 1.4m-33 3.4q0 2.2.6 1.3c.2-.7.2-1.9 0-2.6q-.5-.8-.5 1.3m32 2.5q0 2.6.5 1.2c.5-1.4.2-2.3 0-3s-.5.2-.5 1.8m3-.5q0 2.2.5 1.3c.2-.7.2-1.9 0-2.6q-.5-.8-.5 1.3m-52.2 2.5q0 .5.5.5t.5-.5q-.1-.6-.5-.5-.6.1-.5.5m16 .5q0 1.1.7.7a1 1 0 0 0 0-1.4q-.7-.4-.7.7m34 4c-2 3.8-4 6-4 4.3q0-.9.9-1.9c.5-.5 1.2-2 1.5-3.4s-.5-.3-2 2.3-2.3 5.2-2 5.5.6 0 .6-.7.4-1 .9-.7c1.4.9 4-1.7 5.6-5.7 2-4.9 1-4.8-1.5.2m-55 .8c-.6 1.6-1.5 3.6-2 4.5s-1 2.5-1 3.5c0 2.4 4.2 17.5 4.7 17 .2-.3-.5-3.9-1.6-8-2.1-7.4-2.1-7.5-.2-13.6s2-8.6 0-3.4m-1.9-1.2q0 .5.5.5t.5-.5q-.1-.6-.5-.5-.6.1-.5.5m20.8 2.5c-1 1.7-2.8 3.5-4 4q-2.4.9-.6 1c1.6 0 6.8-5.3 6.8-7 0-1.6-.4-1.2-2.2 2m3.4 5.6c-3.3 13.6-3.9 17.4-2.7 16.4 1.6-1.4 7.8 17.1 7.9 24 0 2.7.5 5 1 5 1.5 0-.4-12.1-3-19.5l-3.1-9q-.6-1.9-1.4-2.5c-.4-.3.1-4.3 1.1-9 1.9-8.3 2-12.8.2-5.4m41.8-3.1q0 .5.5.5t.5-.5q-.1-.6-.5-.5t-.5.5m-53 8.3c.5 3.8 2.3 4.7 2.7 1.5q.4-2.3-.6.2c-.8 1.7-1 1.6-1-1.2 0-1.7-.5-3.4-1-3.7s-.5 1.2-.2 3.2m37.1-1.3q0 1.4.4 1.5c.4.1.6-.7 1-1.5s.1-1.5-.4-1.5q-1 .1-1 1.5m-35 0q0 .5.5.5t.5-.5q-.1-.6-.5-.5-.6.1-.5.5m33.2 2.5q0 2.2.5 1.3c.2-.7.2-1.9 0-2.6q-.5-.8-.5 1.3m3 3.5q0 2.6.5 1.2c.5-1.4.2-2.3 0-3s-.5.2-.5 1.8m14.6 5.2q-.5 2.2.2 2.8a22 22 0 0 1 2 6.8c1.4 7.8.6 13.3-5 31.2-8 25.8-9 30.3-8.6 47 .2 8.3.9 19.7 1.5 25.4 1 8.2 1 10.9 0 13q-1.1 2.5-1.6 1.3-.5-1.5-1.7.9c-1.4 2.8-3.3 3.5-3.8 1.5q-.2-1.7-1.5 1c-1 2.3-1 2.4 1.5 1.7 4.2-1 8-4.5 8.7-8 .4-1.7 0-9-.8-16.4a225 225 0 0 1-1.2-26.4c.3-13.8.4-14 9.7-44 3.5-11 4-14.3 4-21.5 0-9.3-2.4-20.3-3.4-16.3M280 364q0 1.1.7.7a1 1 0 0 0 0-1.4q-.6-.4-.7.7m-58.5 2q.6.9 1.1 1c.5.1.2-.5-.1-1s-.8-1-1.1-1-.2.4.1 1m58 1q-.5.9.4 1c.9.1 1.3-.5 1.6-1s.2-1-.4-1-1.3.4-1.6 1M236 377.5c0 .5.5 1.7 1 2.5s1 1 1 .5-.5-1.7-1-2.5-1-1-1-.5m29.5 10.5c0 6 .3 10.6.8 10.3s.7-4.9.7-10.3-.3-10-.7-10.3-.8 4.4-.8 10.3m-27.5-3.5q0 .5.5.5t.5-.5q-.1-.6-.5-.5-.6.1-.5.5m13.2 8c-.6 3.9-1.7 9.5-2.3 12.5-.7 3.3-.9 9.5-.6 15.3.6 9.7 3.2 21.7 4.8 21.7 3.9 0 4.8-32 1.3-47.4l-2-9zm-14.4 2c.2 2 .6 3.5.8 3.5s.4-1.6.4-3.5-.4-3.5-.8-3.5-.6 1.6-.4 3.5m9 3.5c-2.2 8.3-2.3 26.7-.3 35.9 1.8 7.5 1.5 10.5-.3 5.2-.6-1.7-1.3-3.1-1.6-3.1-1.3 0 2 6.3 3.5 6.7 1 .3 3.2 2.7 5 5.4s3.7 4.9 4.2 4.9.7-1.7.7-3.9.7-5.5 1.5-7.5 1.7-6.4 2-9.9l.4-6.2-1 6c-.4 3.2-1.5 7.7-2.4 10s-1.6 5.4-1.7 7l-.3 3-3.3-5c-4.6-7-6.3-13.4-7-26.6a65 65 0 0 1 1.3-19.3c2-9.2 1.6-11-.7-2.6m-7.8 1.5q0 .5.5.5t.5-.5q-.1-.6-.5-.5-.6.1-.5.5m8.5 45.5q.6 1 1 1 .6 0 .5-1c-.1-1-.5-1-1-1s-.8.5-.5 1m4.7 16c-5.5 6.3-7.2 9.7-7 14v3.5l.7-4c.9-4.9 2-7.2 6.1-11.5 2.7-3 5.6-7 4.8-7-.2 0-2.2 2.3-4.6 5m3 2q0 2.2.5 1.3c.2-.7.2-1.9 0-2.5q-.5-1-.5 1.2m-2.1 9.8a41 41 0 0 0 1 19.4c1.2 2.2 4.7 3.2 6.4 1.8q1.4-1 2.3-.6c1 .4.4-1.6-.2-4.2l-1.1-4.7-.5 4.5c-.5 4.9-2.6 6.3-5.2 3.6-2.2-2.2-3.1-12.6-1.7-19.6.6-3.3 1-6.3.7-6.5s-1 2.6-1.7 6.3m-3.4-2q-2.3 8-.8 6.7c1-1.1 2.6-8.5 1.8-8.5q-.6.2-1 1.8m-6.4 11a35 35 0 0 1-9.8 12.3q-1.7.7-.7.8c2.4.2 5-1.8 6.2-4.9.7-1.6 1.6-3 2.1-3 1 0 4.1-5.8 3.7-7.1q-.4-.6-1.5 1.8"/></svg>