<svg xmlns="http://www.w3.org/2000/svg" viewBox="0 0 512 512"><path fill="currentColor" fill-rule="evenodd" d="M254.5 24.2c-7.6 2.7-12.7 9-14.5 17.9-.7 3-1.8 7-2.7 8.7-1.6 3.7-1.2 8.6 1.4 13.6s.7 7-7.8 9c-4 .9-9.6 3-12.4 4.5a33 33 0 0 1-10.2 3.4c-8.9 1-17.5 7-20.4 14-.7 1.6-3.4 5-6.1 7.5q-5 4.7-8.4 11.9c-2 4-5 9.6-6.9 12.3-5.9 8.7-6.9 19.7-3.5 37.2a49 49 0 0 1-.2 28c-2.9 8.8-2.1 10.9 6.2 17 7.9 6 10.9 6 15.2.6 2.6-3.2 3-4.5 3.3-11.4.4-8-.4-10.6-4.8-16.6q-4.6-6.4 3.9-23.4 4.5-9.2 5.1-14.8c.3-3.3 1-5.6 1.8-5.6a30 30 0 0 0 6.8-4l5.5-3.8 4.3 8.6a34 34 0 0 1 4.7 19.4l.4 10.7-5.6 5.3q-5.7 5.2-5.6 7.7c0 1.3-2.5 6-5.5 10.6-9.6 14.2-12.5 27-7.6 33.6 1.9 2.5 2.2 3.9 1.7 7.2-2.4 17.2-1.8 19.7 8 31.2 7 8.3 6.6 6.6 5 20-.2 1.7-2.3 7-4.6 11.8-3.9 8-4.2 9.3-3.8 14.8q.7 11.8 11.5 12.6c11 1.1 20.2-9.2 18.8-21-.6-4.7-.3-5.6 2.6-10 6.9-10.4 7-17 0-24-4.7-4.9-5-6.6-1.9-11 1.8-2.5 2.3-4.6 2.3-9.2 0-3.3-.4-6.7-.8-7.6q-1-1.8 2-2.6c1.5-.6 5.1-3.1 8-5.7l5.1-4.6 2.1 9a137 137 0 0 1 2.8 17.1l.6 8.1 3.6 1.5c2 .8 3.7 1.6 3.9 1.8s1.1 3.5 2.2 7.4 3.6 10.4 5.5 14.2c3.5 6.9 3.5 7 2.4 14a44 44 0 0 0 3.3 28.9c3.6 7.3 7.8 24.7 7.8 32.3v3.1l-4.5-4.4c-2.5-2.4-4.5-5.1-4.5-6 0-2-4-6-6-6s-14-12.1-14-14.1-3.1-4.9-5.2-4.9c-.8 0-2.5-1.1-3.8-2.5a7 7 0 0 0-5.6-2.5q-6.1.1-2.8 4c1.6 2 1.6 2-.7 2-1.3 0-10.7.4-20.9 1l-32.5 1.5-14 .7-1.5-3.4c-1.3-2.9-2-3.3-5.8-3.6-4.6-.3-6.5 1.5-4.3 4.2.7.8.9 2.5.5 4-.7 2.7 1.7 6.6 4 6.6.6 0 2.5 2.8 4.3 6.2 2.5 4.7 3 6.5 2.1 7.5-1.4 1.8.8 6.2 3.8 7.3 3.2 1.2 9.5 14 8.8 17.8-.7 3.2 1.8 8.2 4.1 8.2.8 0 3.9 4.8 7 10.7 4.8 9.2 5.4 11.1 4.4 13-1.4 2.6 1.2 8.3 4.2 9 1.4.4 4.5 5.5 10 16.5 6.6 13.2 7.8 16.2 6.9 17.9-1.4 2.6 2.6 10.3 5.6 10.7 1.5.2 3.3 2.8 6.5 9.3 2.4 5 4.9 9.5 5.5 10s3.7.5 7 .1c4.4-.5 6-1.1 6.2-2.4.2-1-1.5-5.2-3.7-9.5s-3.8-7.9-3.6-8.2c.5-.4 46.1-4.7 91.8-8.7l20.7-1.8 8.6 9.2q8.7 9.4 9.8 8.3c1.4-1 9.6-2 9.6-1 0 .5-2 1-4.3 1.2l-4.2.4h4.5c7.2-.3 6.6-2.8-2.9-13-6-6.2-7.9-8.9-7.5-10.4.6-2.3-6.5-9.3-9.4-9.3-2.5 0-30.2-29.2-30.2-31.7 0-2.3-5-7.3-7.2-7.3-2.1 0-9.6-8.4-12-13.5-1-2.2-1.8-5.4-1.8-7s-.9-5.8-2-9-2-7-2-8.3c0-1.2 2-12.5 4.6-25 5.6-27.5 5.5-30.8-.5-45.9-3-7.3-4-11.5-4-15a61 61 0 0 1 3.8-20.2c2.6-4.6-1.8-31.8-7.5-46.2-1.9-4.7-3.4-10.3-3.4-12.3s-.9-5.8-2-8.4a81 81 0 0 1-4.7-18c-.5-3.2-.4-3.4 1.7-2.7 1.2.4 5.4.8 9.3 1s8.5.8 10 1.4a24 24 0 0 0 16.5-.8c5.6-2.9 7.9-6 9.6-13.1 1.6-6.3 1.6-7-.5-15.5a50 50 0 0 0-8.5-20.2 12 12 0 0 1-2.4-8.2c0-10.7-7.4-22.4-15.8-25.2-2-.7-5.6-3.1-7.8-5.5s-6.5-5.4-9.3-6.8-5.1-3.3-5.1-4 1.2-3.8 2.7-6.7c2.3-4.3 2.8-6.8 3.1-14.3.4-11.4-.1-14.2-3.9-19.9q-6.4-9.7-19.8-9.6c-3.7 0-8 .5-9.6 1.1m2.2 2a24 24 0 0 0-11.8 9q-.7 1.8 1.7-1c1.5-2 4.6-4.3 6.8-5.3a32 32 0 0 1 19.9-.5 22 22 0 0 1 10.3 11.4q1.3 6.4 1.3 2.1c0-1.4-1.2-4.6-2.8-7a23 23 0 0 0-25.4-8.6m-2.9 4.7c-6.1 3.3-8.2 7.3-8.7 16.3q-.3 10.6-2.6 6.7c-1.6-2.5-2.6-.8-2 3.3 1 5.3 1.4 6 3 4.7 1-.8 1.4.2 2 5 .7 6.7 4.6 13.4 10.6 18.2 7.4 6 13.3 3 19.4-9.7a60 60 0 0 0 6.8-26.4c.2-8.8-1.3-12.5-7-16.8-4.9-3.7-15.8-4.4-21.5-1.3M243 39q0 1.1.7.7a1 1 0 0 0 0-1.4q-.7-.4-.7.7m42 7q0 1.1.7.7a1 1 0 0 0 0-1.4q-.6-.4-.7.7m-1.3 11.8q-2.3 8-.8 6.7c1-1.1 2.6-8.5 1.8-8.5q-.6.1-1 1.8M240 77q0 1.1.7.7a1 1 0 0 0 0-1.4q-.7-.4-.7.7m-12.3 2c-3.1 1-7.3 3-9.2 4.4-2.5 2-4.5 2.6-8.2 2.6a20 20 0 0 0-20 18.4c-.9 9.3 0 9.8 18 9.9 11.1 0 11.3.1 6 3.3-1.6 1-1.4 1.4 2 6 7.6 10.4 12.8 13.4 23 13.4 10.9 0 13-2.3 14.8-16.2a70 70 0 0 1 1.7-9.8c1-2.6 2 4 2 13.7.2 8.6.3 9.3 2.8 11.2 3.7 3 9.8 2.7 16.2-.5 5-2.5 8.6-6.2 13-13.6l2.3-3.7-2.4-3.8c-3.1-5-6.2-13.2-5.3-14 1-1 4.2 3 7.7 9.7a88 88 0 0 0 4.5 7.8c1.5 2 1.5 2.2 0 1.6q-1.6-.5-1.6 1 0 1.6 3.3 1.6c1.9 0 5.6.7 8.3 1.5 6.2 1.9 5.9 2 7.2-1 2.5-5.5.8-15.6-3.5-21.3-3.9-5.2-12.1-9.6-10.7-5.7q1.2 3-3.2-.4-2.2-1.7-1.3-2.3c2.7-1-11-12.8-14.7-12.8-1.5 0-7.9 8.7-8.9 12-1.5 5-5.3 7.2-4.1 2.5.5-2 .3-2.3-1-1.8q-1.3.6-1 1.7.2 1.5-.6 3c-1.2 2.2-1.3 2.2 11.6-1.4q7.8-2 8.9-1.1c1.3 1.3-5.3 4.5-16 7.6a45 45 0 0 0-10.3 4c-2.2 2-3.3 1.9-5.4-.3-.9-1-3.5-2.5-5.9-3.2s-6.8-2.5-9.9-4.1c-5.4-2.7-5.7-2.8-6.3-1-.7 2.2-8 9.1-9.6 9.1-1.1 0 2-4.9 4.6-7 2.8-2.3 3.8-5 2.4-6.6q-3-3.6 12 2.1c5 2 9.2 3.5 9.5 3.5.2 0 0-1.5-.5-3.2s-.9-5-.9-7q0-3.9-2.7-8l-2.7-4-1.2 5.1c-1.1 5.2-5.1 10.8-6.5 9.4-.4-.5-.1-3.3.7-6.3s1.4-6 1.4-6.7q0-2.6-10.3.7m66.8 8q.6 1 1.1 1t-.1-1c-.7-1-.8-1-1.1-1s-.2.5.1 1m-57.5.5q0 .5.5.5t.5-.5-.5-.5-.5.5m14-.4c0 1.6 4 15.2 4.5 15.7.7.7 5.8-4.7 7.6-8 .8-1.5.6-1.8-1.1-1.8q-4-.1-8.8-4.3c-1.2-1.1-2.2-1.9-2.2-1.6m-41.8 1.5c-3 1.4-.6 2.4 6 2.4 5.4 0 7-.3 6-1.1-1.2-1.3-10-2.2-12-1.3m87.8 1.9q0 .5.5.5t.5-.5q-.1-.6-.5-.5t-.5.5m4.4 1.8 5 3.2c1.7 1.2 4.2 3.7 5.5 5.8 3 4.7 4 4 1.1-.7a21 21 0 0 0-10.5-8.4q-3.5-1.5-1.1 0M183.5 104q-.5.9 1 .4 2.6-1.2.6-1.4-1 0-1.6 1m-.7 5.2c-1.4 1.8-3.6 5.8-4.9 8.8s-3.6 7.2-5.2 9.3c-5.8 7.4-7.1 19-4.2 35.7a62 62 0 0 1-.6 30.1c-1.3 3.5-1.8 6.6-1.4 7.6q.8 1.6 1.1.7c.3-.5 2.5 1 5 3.3 3.7 3.6 4.8 4.2 6 3.2.8-.6 1.4-2 1.4-3.1q.1-2.4-1.4-.9c-1.1 1-1.7.8-2.8-.7a7 7 0 0 0-2.5-2.3q-1-.5 2.3-3.7l3.4-3.3 1 2.6c.6 1.5 1 3.7 1 5s.4 2.7 1 3q1 .4 1-6.8c0-6.7-.3-7.8-3.1-11.7-3-4-3-4.6-2.7-12.4.3-8.2.5-8.7 7-21.1 3.5-6.4 4.7-13.5 2.5-13.5q-1.6-.1-2.3 4.8c-.3 2.6-1.5 6.3-2.6 8.2l-1.9 3.5.6-3.5c1.7-11.3 1.7-15.6.1-16.9-2-1.7-2-3.1-.2-3.1q1.4 0 1.4-3c0-1.7.4-3.6 1-4.2q1.3-1.6 1.2 3.5c0 5.7 1.3 6.5 7.3 4.7 4.6-1.3 14.7-10.5 13.1-11.8a39 39 0 0 0-13.3-3.8c-1.4.9-3.3-2.1-4.6-7l-1.1-4.6zM315 107q0 1.1.7.7a1 1 0 0 0 0-1.4q-.6-.4-.7.7m-135.6 2.2q-.6 1 .4.4c1.2-.7 1.6-1.6.8-1.6q-.5 0-1.2 1.2m136.7 1.4q0 1.7.6.6.4-1.2-.1-2c-.5-.7-.6.3-.5 1.4m-138.7 1.6q-.6 1 .4.4c1.2-.7 1.6-1.6.8-1.6q-.5 0-1.2 1.2m-1.4 2.3q0 .5.5.5t.5-.5-.5-.5-.5.5m-3 8q0 .5.5.5t.5-.5-.5-.5-.5.5m146.9 3c.5 1.1 1.7 2.9 2.6 4l1.6 2-1-2c-.5-1.1-1.7-2.9-2.6-4l-1.6-2zm-108.8 3c.6 2.2 2.8 7.4 4.8 11.5 3.4 7 3.6 8.2 4 18.7.3 13.1-.3 12.3 14.4 19.4a46 46 0 0 0 40.3 1.8c4.7-2.2 5.4-4 5.4-14.7v-6.6l-2.5 3.4c-1.4 1.9-2.9 3.6-3.4 4s-1.6 3-2.4 6c-1.7 5.8-4.6 10.8-4.7 8a39 39 0 0 1 7.5-19.2c2.7-3.6 4.5-7 4.5-8.7 0-1.4.7-3.7 1.6-4.9s1-2.2.6-2.2-1.7 1.1-2.6 2.5-2.1 2.5-2.7 2.5c-1.3 0 1.2-4.2 5-8.4 2.2-2.5 2.3-2.8.6-2.1a33 33 0 0 1-13.2 3.5q-7.5 0-12-4.2c-2.2-2-2.2-2-4.3 0-5.5 5.1-22.7 4-31.2-1.9q-3.6-2.7 3.4 5.1c3.7 4.1 6.2 7.7 5.6 7.9-1.7.6-12.8-11.4-12.8-13.9 0-1.8-2.6-6.2-6.2-10.4-.4-.5-.2.8.3 3m83.9-.4a23 23 0 0 0 6.6 14.7l3.4 3 5.5-2.5q8.3-3.9 9.2-.8c.2.7-1.4 1.4-3.8 1.7-2.3.3-4.6 1-5.3 1.7q-1.3 1.3 1.7 0c3.5-1.2 9.7-1.3 9.7 0q-.2.7-1.9.3c-1.7-.4-7 1.6-13 5.1-2 1.2-2.3 2.2-2.5 8l-.1 6.6 3.4 1.1c4.3 1.5 10.3.6 13.9-2 4.3-3 6.5-12.5 4.3-18.3-.5-1.3-1.4-4.6-2-7.3s-2.3-7-3.7-9.3l-2.5-4.3-2.6 2c-3 2.5-4.2 2.6-5.7.7-.6-.9-4-1.7-7.9-2.1-6.6-.7-6.7-.7-6.7 1.7m-128 2.3q0 .5.5.5t.5-.5-.5-.5-.5.5m-1 2.5q0 1.1.7.7a1 1 0 0 0 0-1.4q-.6-.4-.7.7m118-.5q0 .5.5.5t.5-.5q-.1-.6-.5-.5t-.5.5m4.3.7c-.6.7-1.4 2.4-1.8 3.8s-1.3 3.5-2.1 4.8q-1.4 2-.4 2.2c.6 0 2.2-2.5 3.6-5.6 2.4-5.5 2.7-7.7.7-5.2m35.7-.7q0 .5.5.5t.5-.5q-.1-.6-.5-.5t-.5.5m1 2.5q0 1.1.7.7a1 1 0 0 0 0-1.4q-.6-.4-.7.7m-160 1q0 1.1.7.7a1 1 0 0 0 0-1.4q-.6-.4-.7.7m161 2q0 1.1.7.7a1 1 0 0 0 0-1.4q-.6-.4-.7.7m-161.7 3.5q0 3.5.4 1.7.4-2.6 0-4c-.4-1.4-.5.1-.4 2.3m127.3 0q-.5 1.5 1 1.5c1.5 0 2-1.6.5-2.4q-.8-.5-1.5 1m-39.5 1.6-1.5 4c-.4 1.5-1.7 1.8-6.5 1.8-3.3 0-6.2.4-6.6 1-1 1.6 3.1 3 8.8 3h5.5l-.8 3.6c-.5 2-1.4 4-2.2 4.6-1.3.8-8.4.3-11.6-1-3-1-.6 2.3 2.9 4q3.4 2 6.9 1.3c4.2-.7 5.2-.7 11.3.1 3.5.5 5.4.2 7.3-1q5.4-3.3-4.1-2.7c-5.9.3-5.9.3-6.9-5.5-.5-3.2-.5-3.2 3.2-2.7 4.4.6 10.4-.8 11-2.5q.5-1.2-5.5-1.2c-6.6 0-8.3-1-8.3-5.1 0-3.6-1.7-4.6-3-1.7m75-.7q0 .5.5.5t.5-.5q-.1-.6-.5-.5t-.5.5m-104 5.8c0 1.7 5 8 5.7 7.3.6-.6-2.3-6-4.1-7.5q-1.8-1.6-1.6.2m64.8.4q-2.6.5-2.8 1.9c0 1.2 1 1.3 5.1.8 4.2-.6 5-.4 4.7.7-.2.8-2.6 1.8-5.2 2.3-5.8 1.2-5.5 3 .7 3.4 6 .4 6 1.8.2 2.7-5.4.8-5 2.5.6 2.5 5.1 0 5 1.6-.2 2.5-5.4 1-3.3 2.5 3.3 2.5 3.8 0 5-.4 5.9-2.2 1.3-2.3.7-10.6-1-15-1-2.4-1.6-2.8-4.8-2.7zM329 150q0 1.1.7.7a1 1 0 0 0 0-1.4q-.6-.4-.7.7m-164.7 4.5q0 3.5.4 1.7.4-2.6 0-4c-.4-1.4-.5.1-.4 2.3m107.5-1.5c-2.1 3.3-3.2 7-2 7 1.6 0 4.3-5 4-7.3s-.3-2.2-2 .3m57.2 2.5q0 .5.5.5t.5-.5q-.1-.6-.5-.5t-.5.5m-164 6q.2 1.8.7.7t-.1-2c-.5-.7-.6.3-.5 1.4m64.9 2a37 37 0 0 0 6.1 13.4q2.4 0-1.7-8.5-4.3-9-4.4-5m97-1q0 .5.5.5t.5-.5q-.1-.6-.5-.5t-.5.5m-3.3 4c-4 3.5-9.7 4.8-14.8 3.5-2.3-.6-4.3-1-4.6-.7s1.8 1 4.5 1.7a16 16 0 0 0 15.8-4.1q5-5.3-.9-.4m-73.7 2.6c-1.3 2.4-.5 7.3 1.5 8.9 2.8 2.3 5-7.1 2.3-9.8-1.7-1.7-2.6-1.5-3.8.9m-36.7 8.5q-6 4.6-.3 4.4c3.1 0 4.3 2 1.3 2-1 0-3 .7-4.3 1.6l-2.5 1.5 2.5-.8c1.4-.4 5.2-.8 8.5-.8 9.5.1 14 2.9 29.5 18.5 9.4 9.4 16.7 15.6 23.8 20.4 5.7 3.8 10.1 7 9.9 7.3-.8.8-9.3-3-15.7-7.2-3.6-2.3-9.6-7-13.4-10.6-4.1-3.8-6.6-5.5-6.3-4.4.4 1.1 1.1 5 1.7 8.5s1.9 9.2 2.9 12.5 2.5 9.6 3.2 14l1.4 8.3c.1.1 2.8-1 6-2.5a45 45 0 0 1 27.8-1.9l7 1.6s0-3.5-.5-7.7c-1.2-10.4-4.3-23-7.9-31.3a22 22 0 0 1-2.3-8.3q.4-1.5-3-3.1c-4.7-2.2-4.7-4-.1-3.3 3.2.5 3.4.4 2.5-1.4-1.3-2.3-.5-2.3-7.5.1s-15.6 3.6-18.2 2.5c-1.3-.5.6-1.4 6.7-3 13.1-3.7 16-5.3 16-8.7 0-1.5-.2-2.8-.4-2.8l-6.2 2.7a55 55 0 0 1-40.7-1.2l-5.5-2 9.7 6.6c9.5 6.3 11 9 3 4.8-4.3-2.1-11.6-6.9-15.2-9.8-1.8-1.5-1.8-1.6 0-2.2 1.4-.5.6-1.3-3.7-3.7-3-1.8-5.7-3.2-6-3.2s-2 1.2-3.7 2.6m57 7a1 1 0 0 0 1.4 0q.4-.5-.7-.6c-1.1-.1-1 .3-.7.7m-3 1a1 1 0 0 0 1.4 0q.4-.7-.7-.7c-1.1 0-1 .3-.7.7m-11.5 1c1.2.2 3.2.2 4.5 0q1.6-.3-2.3-.4c-3.9-.1-3.5.2-2.2.4m-42.5 3.3c-5.7 1.3-9.8 4.7-14.6 12.1l-1.9 2.9 4.6-2.6a27.5 27.5 0 0 1 37 11.5l2.5 4.6v-4.3c0-2.3-.6-5.9-1.4-7.9-1.9-4.5-1.9-4.9.2-3.2q1.4 1-.8-2a33 33 0 0 0-16-11c-5-1.2-5.2-1.2-9.6-.1m72.7 3q0 1.1.7.7a1 1 0 0 0 0-1.4q-.6-.4-.7.7m-75 9.5q0 .5.5.5t.5-.5-.5-.5-.5.5m7 0q0 .5.5.5t.5-.5-.5-.5-.5.5m48.5 3c-5.6 2.7-6.5 3.3-4.3 3.4a33 33 0 0 0 14.8-5.4c2.2-2.6-2.9-1.7-10.5 2m-60.5-2q0 .5.5.5t.5-.5-.5-.5-.5.5m3.8 1.4c-5.1 1-11.6 5.6-12.4 8.7-.9 3.4.1 11.5 1.5 12.3.6.4 1.6 3.2 2 6.2s1.4 6.9 2 8.7c1.1 3.8.6 4-2.6 1-2.9-2.7-3.6-2-3.6 3.6.1 5.4 1.7 8.3 8.7 16.5a63 63 0 0 1 7 9.7c1.4 2.7 2.2 3.2 5.7 3.6 5 .5 5.7-.7 3.5-6.3-2-4.9-1.5-8 2-14.4 2-3.3 2.4-5.3 1.9-7.5-.7-3.4-1.6-3.7-3.6-1.4a16 16 0 0 1-4 3c-3.8 2-4-.3-.3-3.7a35 35 0 0 0 8.4-14.6c0-2.7 1.7-4 2.2-1.6.5 2.2 4.2-4.5 5.2-9.2 1.7-8.3-12.1-16.8-23.6-14.6m77.8.4q.6 1.6 1.2 1.2c.6-.4 0-1-.7-1.8q-1.4-1.5-.5.6m1.4 3.2q0 .5.5.5t.5-.5q-.1-.6-.5-.5t-.5.5m1 2q0 .5.5.5t.5-.5q-.1-.6-.5-.5t-.5.5m1 2.5q0 1.1.7.7a1 1 0 0 0 0-1.4q-.6-.4-.7.7m-97 2.6q.2 1.7.7.6t-.1-2c-.5-.7-.6.3-.5 1.4m54.9.2c0 2.8 13.4 18.2 14.7 16.8.3-.3-1.1-2.7-3.2-5.3l-6.4-8.5c-2.3-3.4-5.1-5-5.1-3m43-.3q0 .5.5.5t.5-.5q-.1-.6-.5-.5t-.5.5m1.1 2.5c0 .8.4 2.4.9 3.5q.8 1.9.9.5c0-.8-.4-2.4-.9-3.5q-.8-1.9-.9-.5m2 7.6q0 1.7.6.6.4-1.2-.1-2c-.5-.7-.6.3-.5 1.4m1 4.4q0 2.2.6 1.3c.2-.7.2-1.9 0-2.6q-.5-.8-.5 1.3m1 6q0 3 .5 1.8c.2-1 .2-2.6 0-3.6s-.5-.1-.5 1.8m1 7q0 3 .5 1.8c.2-1 .2-2.6 0-3.6s-.5-.1-.5 1.8M193 245q0 1.1.7.7a1 1 0 0 0 0-1.4q-.7-.4-.7.7m58-.5q0 .5.5.5t.5-.5-.5-.5-.5.5m19.5 5.4c-2 .5.3.8 6 .8 7.8 0 11.6.6 19.3 3q1.4.2-.9-1a45 45 0 0 0-24.4-2.8m28.7 1.6q0 2.6.5 1.2c.5-1.4.2-2.3 0-3s-.5.2-.5 1.8m-33.9.2a1 1 0 0 0 1.4 0q.4-.7-.7-.7c-1.1 0-1 .3-.7.7m-70.3.8q0 .5.5.5t.5-.5-.5-.5-.5.5m68 0q0 .5.5.5t.5-.5q-.1-.6-.5-.5t-.5.5m-46.4 1.3c-1 1.7.2 8.2 1.4 8.2s1.1-3.2.1-7q-.7-2.6-1.5-1.2m49.7.8c-2.4.9-4.3 2-4.3 2.4a165 165 0 0 0 5.8 22.7c1 2.7 3.7 7.6 5.9 10.9 6.2 9 9.5 16.4 7.5 16.4-.6 0-2.4-1.9-4-4.1l-3.1-4.2-.8 3a64 64 0 0 0-.7 10.8c0 7.3.3 8.6 3.6 15 4.4 8.5 6.8 20 6.8 32.4v8.6l5-.3 5-.4v-3.7c0-2 1.8-12.9 4-24 2.4-11.9 4-23 4-27.2 0-7.2-2.8-17.5-5.3-19.4-.8-.5-1.9-4.4-2.5-8.5-.9-6-.8-9.2.3-15.5 2.2-12.1 2-13.1-1.7-14.5a58 58 0 0 0-25.5-.4m30.7 2.9q0 .5.5.5t.5-.5q-.1-.6-.5-.5t-.5.5m-41.7 3.2a1 1 0 0 0 1.4 0q.4-.6-.7-.7c-1.1-.1-1 .3-.7.7m41.7-.2q0 .5.5.5t.5-.5q-.1-.6-.5-.5t-.5.5m-.8 5.5q0 2.2.5 1.3c.2-.7.2-1.9 0-2.6q-.5-.8-.5 1.3m-14 3.8 3.2 6.5c1.5 3.1 3.2 5.5 3.7 5.1 2.2-1.3-3-12.4-5.8-12.4q-1.3 0-1 .8m12.7.7q0 .5.5.5t.5-.5q-.1-.6-.5-.5t-.5.5m-69.6 7q-3.3 3.6-1.6 3.5 1.8-.2-.6 2.3c-1.2 1.3-2.2 3-2.2 4q0 1.6-1 1.7c-1 .1-1 .9-1 2s-.4 2-1 2-.7.7-.4 1.5.2 2-.3 2.7-.8 2.4-.8 3.8c0 2.2-.5 2.5-4.2 2.8-2.3.2-5.1-.2-6.3-.8-1.7-1-2.2-.7-3 1.5-2.7 7 0 12 6.7 12.9 3.5.5 4.6.2 7-1.9 3.8-3.1 5-6.3 5.6-14.7.4-5.4 1.1-7.8 3.6-11.7 3.4-5.3 4.9-11 3.4-13.4-.7-1.4-1.3-1-4 1.8m68.9 0q0 2.6.5 1.2c.5-1.4.2-2.3 0-3s-.5.2-.5 1.8m-82.5 1.5c.3 1.1 1.3 2 2.2 2s2.6.3 3.9.6q2.3.8 2.2-1c0-1.8-.7-2.1-5.6-3-2.8-.4-3.1-.3-2.7 1.4m.8 6q-2.4 1 1.8 1c2 0 3.7-.2 3.7-.4 0-.9-3.7-1.2-5.5-.5m-4.5 1.4q0 .5.5.5t.5-.5q-.1-.6-.5-.5-.6.1-.5.5m2 1q0 .5.5.5t.5-.5q-.1-.6-.5-.5-.6.1-.5.5m86 .5q0 1.1.7.7a1 1 0 0 0 0-1.4q-.6-.4-.7.7m-84.5 2c-.4.6.6 1 2.2 1q3.2.1 1.3-1c-2-1.2-2.7-1.2-3.5 0m78.2-.4c-1 1.1-.8 17.6.2 17a38 38 0 0 0 1.4-16.7q-.9-.7-1.6-.3m7.3.9q0 .5.5.5t.5-.5q-.1-.6-.5-.5t-.5.5m-91 2q0 .5.5.5t.5-.5q-.1-.6-.5-.5-.6.1-.5.5m92 .4q0 1 1 1.6.9.5.4-1-1.2-2.6-1.4-.6m-88 2.1c0 .6 1.2 1 2.6 1s2.3-.4 1.9-1-1.5-1-2.6-1-1.9.5-1.9 1m-3 2.5q0 .5.5.5t.5-.5q-.1-.6-.5-.5-.6.1-.5.5m93 0q0 .5.5.5t.5-.5q-.1-.6-.5-.5t-.5.5m-95 2.5q0 1.1.7.7a1 1 0 0 0 0-1.4q-.7-.4-.7.7m4 0c0 .5 1.5 1 3.3 1q3.5 0 1.7-1c-2-1.3-5-1.3-5 0m92 0q0 1.1.7.7a1 1 0 0 0 0-1.4q-.6-.4-.7.7m-30.8 4.5q0 2.6.5 1.2c.5-1.4.2-2.3 0-3s-.5.1-.5 1.8M302 303q0 1.1.7.7a1 1 0 0 0 0-1.4q-.6-.4-.7.7m-77.8 5q0 2.2.5 1.2c.2-.6.2-1.8 0-2.5q-.5-.8-.5 1.3m79.1 5.5c0 4.4.2 6 .4 3.7s.2-6 0-8-.4-.1-.4 4.3m-80.3-2q0 .5.5.5t.5-.5q-.1-.6-.5-.5-.6.1-.5.5m-2.5 4c-2 3-3.6 3.7-10.5 4.5l-5.5.7 5 .1c5.5.2 10.6-2.2 12.5-5.7 1.5-2.9.4-2.6-1.5.3m59.8 6.3c.8 10.6 1.6 15.3 2.8 15.3.5 0 .7-4 .4-8.8-.8-11.8-1.4-15.2-2.7-15.2q-1.2-.2-.5 8.7m21.9 2.8q0 2.6.5 1.2c.5-1.4.2-2.3 0-3s-.5.1-.5 1.8m-65.2 4q0 .5.5.5t.5-.5q-.1-.6-.5-.5-.6.1-.5.5m64 1q.2 1.9.7.7t-.1-2c-.5-.7-.6.3-.5 1.4M157 330.8q.1 1 1.5 2.2 1.4 1 1.5.2-.1-1-1.5-2.2-1.4-1-1.5-.2m84.8 2.9c.6.2 1.8.2 2.4 0q1-.5-1.2-.5c-2.2 0-2 .2-1.2.5m-42.3 1.3-12 .6H200c6.9.1 17.9-.2 24.5-.6l12-.6H224c-6.9 0-17.9.3-24.5.6m-26.7 1.7c2.9.2 7.4.2 10 0s.2-.3-5.3-.3-7.6.1-4.7.3m-13.6 1c1 .2 2.6.2 3.6 0s.1-.5-1.8-.5-2.7.2-1.7.5m65.7 0c-2.5 0-16.3.8-30.7 1.4l-26.2 1.2 3.5 7 3.6 7 11.1-.6c38.3-2.2 64-3.8 64.3-4s-2.2-3-5.2-6.5c-6.1-6.9-5-6.5-20.4-5.6m25 5.2c3 3.1 6.1 6 7 6.6s-1.4-2.1-5-5.8c-8-8.1-9.3-8.7-2-.8m-87-1.4c0 1.6 6.1 12.6 7 12.6.5 0-.7-2.8-2.7-6.2-4-7-4.3-7.4-4.3-6.4m83 10.1q0 .5.5.5t.5-.5q-.1-.6-.5-.5t-.5.5m2.3.2a1 1 0 0 0 1.4 0q.4-.7-.7-.7c-1.1 0-1 .3-.7.7m2.7-.2q0 .5.5.5t.5-.5q-.1-.6-.5-.5-.6.1-.5.5m-43.5 2-24 1.4c-2.6 0-4.5.4-4.2.8.6.6 34.4-1.1 52.7-2.7l8.5-.7h-7c-3.8 0-15.5.5-26 1.2m52.5-.5q-1.8 1 2 1c3.8 0 3.1-.3 2-1q-1.4-.9-2-1-.9.1-2 1m-38 3.6c-17.9 1.2-34.5 2.3-37 2.3s-4 .4-3.7.7c.5.5 71.6-3.3 74.2-4q.9-.2 0-.7c-.6-.3-15.6.5-33.5 1.7m-58 .9q0 .5.5.5t.5-.5q-.1-.6-.5-.5-.6.1-.5.5m4.5.5c.3.6 2.2 1 4 1s3.5-.4 3.5-1-1.8-1-4-1q-4 0-3.5 1m47.7 1.5a671 671 0 0 0-35.7 2.7c-.9.8 7.6 15.9 9.2 16.5 1.4.5 14.6-.1 56.3-2.7l21.9-1.6 6.4-.6-8.4-8.4c-7-7-8.8-8.4-11.4-8.3zm53.3 4c3.2 3.6 6.2 6.5 6.8 6.5s-1.8-3-5.3-6.5-6.6-6.5-6.8-6.5 2.2 3 5.3 6.5m-92.4 6.1c4.6 8.6 5.6 10 6.4 9.2.8-.7-8-16.1-9.4-16.6-.7-.2.6 3.1 3 7.4m108.6 2q-.6.8-.7 2.3c0 1.3 1 1.5 5 1.3 7.3-.6 6.5-4.2-1-4.2-1.4 0-3 .3-3.3.7m-7 5.5a13 13 0 0 0 1.9 11.9c2.3 3 2.5 4 1.9 9.6-.6 5.8-.5 6.2 2 7.8 2 1.4 3 1.5 5.7.6 2.3-.8 4-.8 6.6 0 2.8 1 3.6.8 5.3-.7 2.2-2 2.5-6.1.5-9-.7-1-2-4.5-2.6-7.6-.7-3.2-1.7-5.5-2-5.3-1 .6-.7 5.2.3 6.2 2 2 .5 3-3.3 2.6q-4-.6-4 .6.1 1.1 1 .6c1.4-.9 7 .4 7 1.6 0 1-8 1.2-10.4.3-2-.7-2.1-3-.4-3.7q1.2-.5-.4-.6c-2-.1-2.5-3-.6-3.1q1.2-.1-.4-1c-.9-.6-2-2.4-2.3-4s-1-3-1.6-3q-.9-.2-1-1.2-.1-1.6-1.3-3c-1.3-1.7-1.4-1.7-2 .4m18.4-1.7q0 .5.5.5t.5-.5q-.1-.6-.5-.5t-.5.5m-68.2 3a649 649 0 0 0-35 3c-2.5 1 62-2.7 74.7-4.4l6-.9h-6c-3.3 0-21.2 1-39.7 2.3m68.9-.8c-.4.3-.7 1.8-.6 3.2 0 2.6 0 2.5 1-.3q1.3-4.5-.4-3M287 379c-1 .7-.2 1 3.3 1q4.7 0 4.2-1c-.8-1.3-5.5-1.3-7.5 0m-54.5 3.7a901 901 0 0 0-37.5 3l-2.5.6 2.5.7q2.7.8.7.9c-2.2.1-2.5-.7 4.2 12 3.9 7.3 6 10.3 7.7 10.7 1.2.3 10.7-.1 21-1s22.7-1.8 27.4-2c18.9-1.3 20-1.6 20-4.1 0-1.3.5-3.6 1-5 .8-2.2.5-3.4-1.5-7a18 18 0 0 1-2.5-6.6v-2.4l-32.2 2.2c-33 2.2-51.3 2.9-35.8 1.2 4.1-.4 20.1-1.5 35.5-2.4s29.4-2 31-2.5l3-.8H271c-2 0-19.2 1.1-38.5 2.5m-51.5.3c0 .6 1.8 1 4 1s4-.4 4-1-1.8-1-4-1-4 .5-4 1m108 1q-1.8 1 2.3 1 3.6 0 3.2-1c-.8-1.3-3.5-1.3-5.5 0m-108.7 3.7a1 1 0 0 0 1.4 0q.4-.7-.7-.7c-1.1 0-1 .3-.7.7M192 399c3.3 6.6 6.6 12 7.4 12q1.4 0-4.8-12a49 49 0 0 0-7.4-12c-.7 0 1.3 5 4.8 12m97.5-10q-.4 1 3 1c3.4 0 3.4-.4 3-1s-1.7-1-3-1-2.7.5-3 1m15 7.3q.7 1.6 1.3 1.2c.6-.4 0-1-.7-1.8q-1.4-1.5-.5.6m1.4 3.2q0 .5.5.5t.5-.5q-.1-.6-.5-.5t-.5.5m3 7c0 1.1 1 1.5 4 1.5 5.3 0 5-2.4-.3-2.8-2.8-.2-3.7 0-3.7 1.2m-28.5 1.6q.6 1 1.1 1t-.1-1c-.7-1-.8-1-1.1-1s-.2.5.1 1m-22 2-23 2c-21.7 1.6-25.7 2.2-24.8 3 .4.5 11.2 0 23.8-1l33.8-2.5c6-.4 10.5-1 10.1-1.6q-.7-1.6-19.9.2m24.5-.6q0 .5.5.5t.5-.5q-.1-.6-.5-.5t-.5.5m2.3 1.2a1 1 0 0 0 1.4 0q.4-.7-.7-.7c-1.1 0-1 .3-.7.7m3.2.3q-.4 1 3.4 1c2.2 0 4.3-.4 4.6-1q.4-1-3.4-1c-2.2 0-4.3.5-4.6 1m18 1-3 .7 3.5.4c2 .3-1.7.8-8.1 1.3-7.2.5-12.3.5-13.5-.1q-1.9-1-28.4 1c-14.6 1.2-25.5 2.3-24.3 2.5s11.6-.4 23-1.2c11.6-.9 23-1.6 25.4-1.5s-11.3 1.4-30.6 3c-19.2 1.4-36 2.9-37.1 3-2 .4-1.4 1.6 6 15.6l8.1 15.2 5 .2 5 .2-4 .8c-7.7 1.5 22-.8 52-4 4.4-.5 6.7-.9 5-1s-12.7.8-24.5 1.9c-21 2-28.8 2.4-28 1.6.3-.2 22.4-2.3 49.2-4.7s48.8-4.6 48.8-5c0-.2-5.4-6.4-11.9-13.6l-13.3-15c-1-1.4-2-1.7-4.3-1.2m21.7 14.4a92 92 0 0 0 16.2 15.5c1.5 0 1.3-.6-1.5-3.7a223 223 0 0 0-27.3-27.3c-1 0 3.8 6 12.6 15.5m-136.2-12q0 .5.5.5t.5-.5q-.1-.6-.5-.5-.6.1-.5.5m5.3.8c.5 1.5 3.1 2 6.3 1.3 4-1 2.7-2.6-2.2-2.6q-4.7 0-4.2 1.3m-4.2 1.2q0 .5.5.5t.5-.5q-.1-.6-.5-.5-.6.1-.5.5m1 2q0 .5.5.5t.5-.5q-.1-.6-.5-.5-.6.1-.5.5m19 .5-3.5.7h4c2.2 0 6.7-.3 10-.7l6-.7H223c-3.6 0-8 .3-10 .7m-17.2 1.7q1.2.4 2-.1c.7-.5-.3-.6-1.4-.5q-1.7 0-.6.6m14.7 16.3c7.6 15 8.8 17 11 17h2.4l-4-7.2-9-17c-3.7-7-5.8-9.8-7-9.8-1.6 0-.5 2.9 6.6 17m108.5 8c-10.2 1-19.8 2-21.4 2s-2.7.3-2.3.6c.8.9 42.7-2.8 42.7-3.8q0-.7-.3-.7zm29.7.6c-3.2.4-3.6.7-2.6 1.9 1.2 1.5 9.9 2 9.9.6 0-1-2.2-3.3-3-3zm-46.7 4.9c-19.5 1.8-41.3 3.8-48.5 4.3-19 1.6-21 2-19.3 3.7 1.3 1.3 7.3 1 45.9-2.5l51.9-4.7c10-.8 11.4-1.2 10-3-.7-.8-2-1.3-2.9-1.3zm59-1.1q0 .5.5.5t.5-.5q-.1-.6-.5-.5t-.5.5m-8 3.3c0 .5 3.4 4.5 7.5 9 5.7 6 8 7.9 9.5 7.5 1.7-.4.8-1.7-5.7-9-6.7-7.2-11.3-10.3-11.3-7.5m-28 2.2-42.5 4c-38.5 3.3-47.5 4.2-47.5 5 0 .3 15.9-.9 35.3-2.7l55.7-4.9c11.3-.9 21.2-2 22-2.5 2-1.2-1-1-23 1.1m-104.3 2.7q-1.6.6-1.4 1.6c.4 1.4 5 2 8.4 1.2 2-.5 2.3-.8 1.3-2-1.2-1.5-4.6-1.8-8.3-.8m-6.7 1.8q0 .5.5.5t.5-.5q-.1-.6-.5-.5-.6.1-.5.5m1.9 3.2a9 9 0 0 0 2.2 2.8c2 1.3 1.5 0-1-2.5q-3-3.4-1.2-.3m9.7 3.6c.3 1.2 2.2 5.3 4 9 3 6 3.7 6.7 5.7 6.1 1.2-.3 2.3-.8 2.5-1s-1.3-3.4-3.2-7.3c-3.1-6.1-4-7.1-6.4-7.2l-2.7-.1 2.5-.8 2.5-.8-2.8-.1c-2.5 0-2.8.2-2.1 2.2m11.6 18.4c1 .2 2.6.2 3.6 0s.1-.5-1.8-.5-2.7.2-1.7.5m-5 1a1 1 0 0 0 1.4 0q.4-.6-.7-.7c-1.1-.1-1 .3-.7.7"/></svg>